# xmcd
#
# Track frame offsets: 
#        150
#        12785
#        29960
#        43467
#        59299
#        80375
#        91782
#        112339
#        130342
#        143553
#        156324
#        171458
#        190732
#        202075
#
# Disc length: 2967 seconds
#
# Revision: 0
# Processed by: cddbd v1.5.2PL0 Copyright (c) Steve Scherf et al.
# Submitted via: ExactAudioCopy v0.95b4
#
DISCID=ce0b950e
DTITLE=South Mountain - Layin Tracks
DYEAR=2003
DGENRE=Country
TTITLE0=C.C. Express
TTITLE1=I'll Be Alone When I Cry
TTITLE2=Mangling The Mandolin
TTITLE3=I Won't Be Blue Anymore
TTITLE4=Roly Poly
TTITLE5=Tearing The Heart Out Of Me
TTITLE6=A Mansion On The Hill
TTITLE7=I'm Sorry
TTITLE8=Grandfather's Clock
TTITLE9=Excuse Me (I Think I've Got A Heartache)
TTITLE10=Kayaking In Killarney
TTITLE11=Two Highways
TTITLE12=O Canada
TTITLE13=1-2-10
EXTD=
EXTT0=
EXTT1=
EXTT2=
EXTT3=
EXTT4=
EXTT5=
EXTT6=
EXTT7=
EXTT8=
EXTT9=
EXTT10=
EXTT11=
EXTT12=
EXTT13=
PLAYORDER=
